<?xml version="1.0" encoding="UTF-8" standalone="no"?>
<!-- Created with Inkscape (http://www.inkscape.org/) -->

<svg
   xmlns:dc="http://purl.org/dc/elements/1.1/"
   xmlns:cc="http://creativecommons.org/ns#"
   xmlns:rdf="http://www.w3.org/1999/02/22-rdf-syntax-ns#"
   xmlns:svg="http://www.w3.org/2000/svg"
   xmlns="http://www.w3.org/2000/svg"
   xmlns:sodipodi="http://sodipodi.sourceforge.net/DTD/sodipodi-0.dtd"
   xmlns:inkscape="http://www.inkscape.org/namespaces/inkscape"
   width="40mm"
   height="40mm"
   viewBox="0 0 40 40"
   version="1.1"
   id="svg1450"
   inkscape:version="0.92.3 (unknown)"
   sodipodi:docname="logo-apium_icon_startaken.svg">
  <defs
     id="defs1444" />
  <sodipodi:namedview
     id="base"
     pagecolor="#ffffff"
     bordercolor="#666666"
     borderopacity="1.0"
     inkscape:pageopacity="0.0"
     inkscape:pageshadow="2"
     inkscape:zoom="1.979899"
     inkscape:cx="73.443556"
     inkscape:cy="56.734642"
     inkscape:document-units="mm"
     inkscape:current-layer="layer1"
     showgrid="false"
     inkscape:window-width="2560"
     inkscape:window-height="1056"
     inkscape:window-x="0"
     inkscape:window-y="24"
     inkscape:window-maximized="1" />
  <metadata
     id="metadata1447">
    <rdf:RDF>
      <cc:Work
         rdf:about="">
        <dc:format>image/svg+xml</dc:format>
        <dc:type
           rdf:resource="http://purl.org/dc/dcmitype/StillImage" />
        <dc:title></dc:title>
      </cc:Work>
    </rdf:RDF>
  </metadata>
  <g
     inkscape:label="Layer 1"
     inkscape:groupmode="layer"
     id="layer1"
     transform="translate(0,-257)">
    <g
       id="g1442"
       transform="matrix(1.2101396,0,0,1.2016192,-21.232648,233.7629)"
       inkscape:export-filename="/media/xavi/XAVINGUER/workspace/xavi-reloaded/startby.io/site/src/assets/apium-logo.png"
       inkscape:export-xdpi="551"
       inkscape:export-ydpi="551"
       style="fill:#990018;fill-opacity:1">
      <path
         style="fill:#990018;stroke-width:0.26458335;fill-opacity:1"
         d="m 33.087699,52.18655 c 0.988318,-0.05105 2.536131,-0.05066 3.439584,7.94e-4 0.903453,0.05151 0.09483,0.09327 -1.796941,0.09281 -1.891771,-5.29e-4 -2.63096,-0.04261 -1.642643,-0.09365 z m -3.550481,-0.795734 c -0.329108,-0.419645 -0.319749,-0.429004 0.0999,-0.0999 0.254661,0.19972 0.46302,0.40808 0.46302,0.463021 0,0.217762 -0.217272,0.0776 -0.562915,-0.363125 z M 23.599001,31.084045 c 1.85e-4,-3.346979 0.0381,-4.679715 0.08426,-2.961635 0.04616,1.71808 0.04601,4.456518 -3.44e-4,6.085417 -0.04634,1.628899 -0.0841,0.223197 -0.08392,-3.123782 z"
         id="path1426"
         inkscape:connector-curvature="0" />
      <path
         style="fill:#990018;stroke-width:0.26458335;fill-opacity:1"
         d="m 29.306383,47.520607 c 0,-0.05494 0.20836,-0.2633 0.463021,-0.463021 0.419644,-0.329107 0.429003,-0.319749 0.0999,0.0999 -0.345643,0.44073 -0.562916,0.580888 -0.562916,0.363125 z"
         id="path1428"
         inkscape:connector-curvature="0" />
      <path
         style="fill:#990018;stroke-width:0.26458335;fill-opacity:1"
         d="m 41.675654,52.187942 c 0.763985,-0.05345 2.014141,-0.05345 2.778125,0 0.763985,0.05345 0.138907,0.09718 -1.389062,0.09718 -1.527969,0 -2.153047,-0.04373 -1.389063,-0.09718 z M 27.917321,25.197859 c 1.78263,-0.04577 4.699661,-0.04577 6.482292,0 1.78263,0.04577 0.324114,0.08323 -3.241146,0.08323 -3.565261,0 -5.023776,-0.03745 -3.241146,-0.08323 z"
         id="path1430"
         inkscape:connector-curvature="0" />
      <path
         style="fill:#990018;stroke-width:0.26458335;fill-opacity:1"
         d="m 48.488675,50.795503 c 0.26339,-0.291041 0.538422,-0.529166 0.611182,-0.529166 0.07276,0 -0.08321,0.238125 -0.346598,0.529166 -0.26339,0.291042 -0.538422,0.529167 -0.611183,0.529167 -0.07276,0 0.08321,-0.238125 0.346599,-0.529167 z M 17.779722,31.216336 c 0,-3.710781 0.03721,-5.228828 0.08269,-3.373437 0.04548,1.855391 0.04548,4.891484 0,6.746875 -0.04548,1.855391 -0.08269,0.337344 -0.08269,-3.373438 z m 5.507391,-11.572607 c 0.836744,-0.05251 2.205963,-0.05251 3.042708,0 0.836745,0.05251 0.152135,0.09547 -1.521354,0.09547 -1.67349,0 -2.358099,-0.04296 -1.521354,-0.09547 z m 8.466666,-6.88e-4 c 0.982266,-0.05091 2.58961,-0.05091 3.571875,0 0.982266,0.05091 0.178594,0.09256 -1.785937,0.09256 -1.964531,0 -2.768203,-0.04165 -1.785938,-0.09256 z"
         id="path1432"
         inkscape:connector-curvature="0" />
      <path
         style="fill:#990018;stroke-width:0.26458335;fill-opacity:1"
         d="M 35.920967,37.963212 C 43.414231,30.468889 49.604614,24.33717 49.677374,24.33717 c 0.07276,0 -5.998559,6.131719 -13.491824,13.626042 -7.493263,7.494322 -13.683646,13.626041 -13.756407,13.626041 -0.07276,0 5.998561,-6.131719 13.491824,-13.626041 z m -3.96875,-3.968751 C 39.44548,26.500139 45.635864,20.36842 45.708624,20.36842 c 0.07276,0 -5.998561,6.131719 -13.491824,13.626041 -7.493263,7.494323 -13.683646,13.626042 -13.756407,13.626042 -0.07276,0 5.99856,-6.131719 13.491824,-13.626042 z m 18.371254,6.746876 c 0,-3.710782 0.03721,-5.228829 0.0827,-3.373438 0.04548,1.855391 0.04548,4.891484 0,6.746875 -0.04548,1.855391 -0.0827,0.337344 -0.0827,-3.373437 z M 19.384508,21.16217 c 0.263389,-0.291042 0.538421,-0.529167 0.611181,-0.529167 0.07276,0 -0.08321,0.238125 -0.346597,0.529167 -0.263389,0.291041 -0.538421,0.529166 -0.611181,0.529166 -0.07276,0 0.08321,-0.238125 0.346597,-0.529166 z"
         id="path1434"
         inkscape:connector-curvature="0" />
      <path
         style="fill:#990018;stroke-width:0.26458335;fill-opacity:1"
         d="m 36.847009,46.826753 -6.350001,-0.146759 6.416146,-0.05891 c 4.140317,-0.03802 6.416146,0.03494 6.416146,0.205671 0,0.145521 -0.02977,0.238072 -0.06615,0.205671 -0.03638,-0.0324 -2.923645,-0.124952 -6.416145,-0.205671 z"
         id="path1436"
         inkscape:connector-curvature="0" />
      <path
         style="fill:#990018;stroke-width:0.26458335;fill-opacity:1"
         d="m 40.94805,50.695607 c 0,-0.05494 0.20836,-0.2633 0.463021,-0.463021 0.419645,-0.329107 0.429003,-0.319749 0.0999,0.0999 -0.345644,0.44073 -0.562917,0.580888 -0.562917,0.363125 z M 29.306383,47.785191 c 0,-0.05494 0.20836,-0.263301 0.463021,-0.463021 0.419644,-0.329108 0.429003,-0.319749 0.0999,0.0999 -0.345643,0.440729 -0.562916,0.580887 -0.562916,0.363125 z m 15.459285,-7.176146 c 1.85e-4,-3.346979 0.0381,-4.679715 0.08426,-2.961635 0.04616,1.71808 0.04601,4.456518 -2.64e-4,6.085417 -0.04635,1.628899 -0.08411,0.223197 -0.08392,-3.123782 z M 25.205342,21.16217 c 0.263389,-0.291042 0.53842,-0.529167 0.611181,-0.529167 0.07276,0 -0.08321,0.238125 -0.346598,0.529167 -0.263389,0.291041 -0.53842,0.529166 -0.611181,0.529166 -0.07276,0 0.08321,-0.238125 0.346598,-0.529166 z"
         id="path1438"
         inkscape:connector-curvature="0" />
      <path
         style="fill:#990018;stroke-width:0.26458335;fill-opacity:1"
         d="M 18.702697,51.345022 C 18.086783,50.729109 17.9293,50.339068 17.9293,49.429536 V 48.287449 L 32.153398,34.063351 46.377496,19.839253 h 1.142087 c 1.612551,0 2.688884,1.076333 2.688884,2.688883 v 1.142089 L 35.984369,37.894322 21.760272,52.11842 h -1.142089 c -0.90953,0 -1.299571,-0.157483 -1.915486,-0.773398 z M 30.731989,51.85911 C 29.04479,51.177406 28.515835,48.859907 29.75276,47.568835 l 0.710959,-0.742082 h 6.300499 c 6.99525,0 6.738384,-0.0767 5.870175,1.752907 -0.62027,1.307124 -2.541267,2.895555 -3.922367,3.243318 -1.360566,0.342596 -7.156599,0.368837 -7.980037,0.03613 z m 11.745398,-0.929267 c 2.185371,-1.964836 2.279462,-2.372064 2.384655,-10.320798 l 0.09104,-6.879167 0.667739,-0.701429 c 0.791681,-0.83162 1.678194,-1.048496 2.903233,-0.710247 1.684055,0.46499 1.717133,0.645631 1.630194,8.901893 l -0.07807,7.414397 -0.804754,1.144405 c -1.304613,1.855235 -2.424451,2.330024 -5.507715,2.335171 l -2.608304,0.0043 1.321985,-1.188577 z M 19.084087,39.373605 C 17.964222,38.831347 17.900724,38.327483 17.98317,30.637638 l 0.07842,-7.314487 0.803581,-1.142723 c 1.417936,-2.016356 2.161684,-2.341175 5.360661,-2.341175 h 2.778695 l -1.06229,0.769519 c -0.641401,0.464628 -1.338526,1.323853 -1.759489,2.168616 -0.695784,1.396256 -0.6972,1.412175 -0.6972,7.837938 0,6.910767 -0.136862,7.783819 -1.353839,8.636223 -0.686135,0.480588 -2.183351,0.540551 -3.047624,0.122056 z m 6.088727,-15.072233 c 0.361117,-1.805585 1.951572,-3.527948 3.842322,-4.160996 0.506661,-0.169636 2.566229,-0.301123 4.716707,-0.301123 h 3.817329 l 0.773397,0.773397 c 0.606557,0.606557 0.773398,1.010487 0.773398,1.872436 0,0.861949 -0.166841,1.26588 -0.773398,1.872436 l -0.773397,0.773398 h -6.271134 -6.271134 z"
         id="path1440"
         inkscape:connector-curvature="0" />
    </g>
  </g>
</svg>
